# xmcd
#
# Track frame offsets: 
#        150
#        24856
#        28292
#        66150
#        89783
#        115766
#        140248
#        161124
#
# Disc length: 2438 seconds
#
# Revision: 0
# Processed by: cddbd v1.5.2PL0 Copyright (c) Steve Scherf et al.
# Submitted via: ExactAudioCopyFreeDBPlugin 1.0
#
DISCID=72098408
DTITLE=John Lee Hooker - Kabuki Wuki
DYEAR=2013
DGENRE=Blues
TTITLE0=Your Love (Just A Little Bit)
TTITLE1=Hold It
TTITLE2=Look At The Rain
TTITLE3=My Best Friend 
TTITLE4=Hit The Floor
TTITLE5=A Little Bit Higher 
TTITLE6=I Wonder Why 
TTITLE7=If You Got A Dollar 
EXTD=
EXTT0=
EXTT1=
EXTT2=
EXTT3=
EXTT4=
EXTT5=
EXTT6=
EXTT7=
PLAYORDER=
